<?xml version="1.0" encoding="UTF-8"?>
<svg version="1.1" xmlns="http://www.w3.org/2000/svg" width="1024" height="1024">
<path d="M0 0 C337.92 0 675.84 0 1024 0 C1024 337.92 1024 675.84 1024 1024 C686.08 1024 348.16 1024 0 1024 C0 686.08 0 348.16 0 0 Z " fill="#00A6A4" transform="translate(0,0)"/>
<path d="M0 0 C26.73 0 53.46 0 81 0 C86.62431572 13.49835773 86.62431572 13.49835773 88.34570312 18.2409668 C88.73886215 19.31967545 89.13202118 20.39838409 89.53709412 21.50978088 C89.94766556 22.64479538 90.358237 23.77980988 90.78125 24.94921875 C91.46565057 26.82969981 92.15005312 28.71018015 92.83453274 30.59063244 C93.55884593 32.58204734 94.28183349 34.5739388 95.00442505 36.565979 C97.31512772 42.9356946 99.63410981 49.30239773 101.95279121 55.66921234 C102.48309831 57.12545912 103.01330381 58.58174289 103.54340935 60.03806305 C108.41755471 73.42775361 113.34245178 86.79826497 118.28317261 100.1635437 C126.08978925 121.28578535 133.80482562 142.4394188 141.4375 163.625 C141.67185131 164.27542141 141.90620262 164.92584282 142.14765549 165.59597397 C146.71116277 178.26301164 151.26596922 190.93314477 155.79296875 203.61328125 C163.57429342 225.40010581 171.56563463 247.104742 179.61715698 268.79316711 C180.04255768 269.93907822 180.46795837 271.08498932 180.90625 272.265625 C181.54519699 273.98672737 181.54519699 273.98672737 182.197052 275.74259949 C194.00410495 307.56043836 205.64283735 339.4403153 217.21716309 371.34344482 C219.3559302 377.23532484 221.50725759 383.12251469 223.6640625 389.0078125 C224.50926525 391.31779372 225.35420588 393.62787062 226.19903564 395.93798828 C226.7278005 397.38176655 227.25768532 398.82513519 227.78875732 400.26806641 C228.50783134 402.2219601 229.2230914 404.17720917 229.9375 406.1328125 C230.33839844 407.22480957 230.73929688 408.31680664 231.15234375 409.44189453 C232 412 232 412 232 414 C204.28 414 176.56 414 148 414 C145.03 405.09 142.06 396.18 139 387 C136.47341699 379.70266343 133.93800443 372.40947128 131.375 365.125 C130.43642252 362.45570532 129.49858061 359.78616119 128.56265259 357.11593628 C127.9930631 355.49097962 127.42215031 353.86648546 126.84921265 352.2427063 C123.4451438 342.53396207 120.25455642 332.76366926 117 323 C40.275 322.505 40.275 322.505 -38 322 C-38.33 323.65 -38.66 325.3 -39 327 C-39.5608102 328.7846385 -40.15511811 330.55895048 -40.77490234 332.32397461 C-41.13973724 333.36794907 -41.50457214 334.41192352 -41.88046265 335.48753357 C-42.27826935 336.61442093 -42.67607605 337.74130829 -43.0859375 338.90234375 C-43.50235504 340.08929337 -43.91877258 341.27624298 -44.34780884 342.49916077 C-45.23564375 345.0274453 -46.12475785 347.5552344 -47.01611328 350.08227539 C-48.3397162 353.83508732 -49.65630302 357.5903418 -50.97265625 361.34570312 C-51.8434088 363.82303662 -52.71449395 366.30025324 -53.5859375 368.77734375 C-53.96350189 369.85362534 -54.34106628 370.92990692 -54.73007202 372.0388031 C-59.68553877 386.07639628 -64.87422396 400.02061079 -70 414 C-96.73 414 -123.46 414 -151 414 C-147.6286676 402.76222535 -147.6286676 402.76222535 -145.8996582 398.171875 C-145.51400192 397.14094727 -145.12834564 396.11001953 -144.73100281 395.04785156 C-144.32090469 393.95956055 -143.91080658 392.87126953 -143.48828125 391.75 C-142.58954627 389.34416484 -141.69196392 386.93789886 -140.79541016 384.53125 C-140.56504531 383.91316467 -140.33468046 383.29507935 -140.09733486 382.65826416 C-137.57273855 375.87289767 -135.11695898 369.0629778 -132.66796875 362.25 C-132.22357956 361.01424225 -131.77919037 359.7784845 -131.32133484 358.50527954 C-130.41017839 355.97073373 -129.49953173 353.43600532 -128.58914185 350.90118408 C-122.0910183 332.81098722 -115.58718368 314.72393952 -108.8500061 296.72109985 C-101.94871008 278.27351104 -95.22886457 259.75910289 -88.48266602 241.25439453 C-87.53794662 238.66307739 -86.59320369 236.07176883 -85.6484375 233.48046875 C-85.41489248 232.83987267 -85.18134747 232.19927658 -84.94072533 231.53926849 C-77.03287906 209.8505763 -69.07005063 188.18202209 -61.10733032 166.51342773 C-51.72216485 140.97315546 -42.34997924 115.42817563 -33 89.875 C-32.69269958 89.03518585 -32.38539917 88.1953717 -32.06878662 87.33010864 C-28.05055783 76.34798447 -24.03713744 65.36411305 -20.02734375 54.37890625 C-18.7492955 50.87834674 -17.47120715 47.37780187 -16.19311523 43.8772583 C-14.9687164 40.52301732 -13.7450891 37.16849557 -12.52148438 33.81396484 C-11.75264031 31.70799462 -10.98376166 29.60203701 -10.21484375 27.49609375 C-9.70932228 26.10904991 -9.70932228 26.10904991 -9.19358826 24.69398499 C-6.17938587 16.44278248 -3.08487192 8.22632513 0 0 Z " fill="#FEFEFE" transform="translate(315,282)"/>
<path d="M0 0 C1.2794751 0.00491455 2.5589502 0.0098291 3.87719727 0.01489258 C12.84702883 0.12628003 21.06056184 0.68965799 29.6875 3.3125 C30.85667969 3.66441406 32.02585937 4.01632812 33.23046875 4.37890625 C59.14129325 12.9404982 78.54386382 30.94420567 90.765625 55.13671875 C92.85150282 59.5031147 94.5010949 63.96448795 96 68.5625 C96.23017822 69.25077881 96.46035645 69.93905762 96.69750977 70.64819336 C101.51812726 86.43231275 102.12217682 102.65507619 102.02807617 119.0222168 C102.02722753 121.12351469 102.02770965 123.22481346 102.02940369 125.32611084 C102.03025582 130.96744802 102.01275838 136.60858938 101.99168181 142.24988151 C101.97278297 148.16884065 101.97115425 154.0878055 101.96760559 160.00679016 C101.95832361 171.18702104 101.93376249 182.36716272 101.90355712 193.54735452 C101.86989259 206.28756433 101.85349694 219.02777865 101.83847082 231.76802194 C101.80720904 257.9495753 101.75224568 284.13100656 101.6875 310.3125 C77.5975 310.3125 53.5075 310.3125 28.6875 310.3125 C28.6781543 304.4233374 28.66880859 298.5341748 28.65917969 292.46655273 C28.62538239 272.98858877 28.57001773 253.51072995 28.50359726 234.03285122 C28.46385915 222.22575604 28.43144011 210.41872702 28.41650391 198.61157227 C28.40346028 188.31541203 28.37642653 178.01939766 28.33288693 167.72331959 C28.3103331 162.27618605 28.29458567 156.82923202 28.29561615 151.38204765 C28.29636636 146.24459882 28.2782715 141.10754588 28.24633217 135.97019958 C28.23788248 134.09466422 28.23604931 132.21908418 28.24169731 130.34353828 C28.29222207 110.97032514 24.9971694 94.13162858 11.1640625 79.53515625 C7.07073302 75.86148989 2.7046162 73.50577484 -2.3125 71.3125 C-3.21484375 70.9 -4.1171875 70.4875 -5.046875 70.0625 C-18.50300217 64.70978643 -34.39236706 66.06101445 -47.51171875 71.68359375 C-65.58344115 80.60182835 -76.64409629 95.61962684 -83.3125 114.3125 C-85.96136392 123.23993334 -85.62067509 132.27658972 -85.63134766 141.50024414 C-85.64065571 143.34391719 -85.65082568 145.18758605 -85.66178894 147.03125 C-85.68900408 152.01608642 -85.70421313 157.0008947 -85.71721697 161.98578572 C-85.73288474 167.20283168 -85.7596633 172.41982051 -85.7852478 177.63682556 C-85.83197113 187.50693437 -85.86874641 197.37705401 -85.90192068 207.24721664 C-85.94018766 218.48787565 -85.98958582 229.7284772 -86.03990483 240.96908772 C-86.14312882 264.08352127 -86.23095093 287.19797912 -86.3125 310.3125 C-111.0625 310.3125 -135.8125 310.3125 -161.3125 310.3125 C-161.3125 211.3125 -161.3125 112.3125 -161.3125 10.3125 C-137.8825 10.3125 -114.4525 10.3125 -90.3125 10.3125 C-90.3125 21.5325 -90.3125 32.7525 -90.3125 44.3125 C-89.6525 44.3125 -88.9925 44.3125 -88.3125 44.3125 C-88.12300781 43.63703125 -87.93351563 42.9615625 -87.73828125 42.265625 C-85.72664404 38.09905586 -82.77543493 35.28584701 -79.5 32.0625 C-78.48957642 31.06561157 -78.48957642 31.06561157 -77.45874023 30.04858398 C-56.33866103 9.64385028 -29.11829175 -0.13231229 0 0 Z " fill="#FDFEFE" transform="translate(739.3125,385.6875)"/>
<path d="M0 0 C2 1 2 1 2.82292175 2.88095093 C3.22804741 4.1220311 3.22804741 4.1220311 3.64135742 5.38818359 C3.9537738 6.33218018 4.26619019 7.27617676 4.58807373 8.2487793 C4.92381409 9.2881665 5.25955444 10.32755371 5.60546875 11.3984375 C5.96110901 12.47794678 6.31674927 13.55745605 6.6831665 14.66967773 C7.45323523 17.00864857 8.22007827 19.34868328 8.98410034 21.68963623 C11.01969498 27.92356416 13.08063029 34.14910068 15.140625 40.375 C15.34825911 41.00336132 15.55589321 41.63172264 15.76981926 42.27912521 C19.54037297 53.68722764 23.44664231 65.04240776 27.4375 76.375 C33.08391409 92.44211129 38.64083974 108.53882404 44.12942505 124.66046143 C44.99715112 127.20900411 45.8670742 129.75677944 46.73898315 132.30389404 C47.95425873 135.85730848 49.16352769 139.41270943 50.37109375 142.96875 C50.73904053 144.04158234 51.1069873 145.11441467 51.48608398 146.21975708 C51.81866211 147.20362396 52.15124023 148.18749084 52.49389648 149.20117188 C52.78618637 150.05964722 53.07847626 150.91812256 53.37962341 151.8026123 C54 154 54 154 54 157 C18.03 157 -17.94 157 -55 157 C-53.06883239 149.91905211 -51.09542922 143.09251947 -48.62109375 136.21875 C-48.2971312 135.3080777 -47.97316864 134.3974054 -47.63938904 133.45913696 C-46.57573405 130.4714459 -45.50657254 127.48575631 -44.4375 124.5 C-43.68003803 122.37500232 -42.92304897 120.24983601 -42.16650391 118.12451172 C-40.98336621 114.80086062 -39.79995881 111.47730871 -38.6151123 108.15426636 C-34.71705786 97.2198082 -30.85789736 86.27177278 -27.00149536 75.3225708 C-20.86762361 57.91150115 -14.70475629 40.51093745 -8.5 23.125 C-8.18013123 22.22783264 -7.86026245 21.33066528 -7.53070068 20.40631104 C-6.63614924 17.89808407 -5.74022341 15.39035307 -4.84375 12.8828125 C-4.58316803 12.15199463 -4.32258606 11.42117676 -4.05410767 10.66821289 C-2.77007726 7.08279139 -1.44368957 3.52435143 0 0 Z " fill="#0198B5" transform="translate(355,380)"/>
<path d="M0 0 C0.66 0 1.32 0 2 0 C2 0.66 2 1.32 2 2 C2.66 2 3.32 2 4 2 C4 4.97 4 7.94 4 11 C4.66 11 5.32 11 6 11 C5.979375 11.78375 5.95875 12.5675 5.9375 13.375 C5.81315937 15.98114961 5.81315937 15.98114961 7 18 C9.62610025 31.48975023 9.1494231 45.53306695 9.14526367 59.21411133 C9.14826237 61.20320193 9.15166652 63.19229195 9.15544128 65.18138123 C9.16420261 70.53583153 9.16661575 75.89026582 9.16725707 81.2447226 C9.16797084 84.5918324 9.17011108 87.93893819 9.17275429 91.28604698 C9.18197404 102.96584708 9.18609247 114.64563583 9.18530273 126.32543945 C9.18469939 137.21443888 9.19530992 148.10338918 9.2110464 158.99237615 C9.22409404 168.3539935 9.22948797 177.71559471 9.22884732 187.0772211 C9.22859198 192.6639792 9.23146471 198.25069336 9.24202538 203.8374424 C9.25166225 209.07668736 9.25181614 214.31584586 9.24450874 219.55509377 C9.24345813 221.48127366 9.24585379 223.40745882 9.2518692 225.33362961 C9.25952355 227.95309892 9.25498871 230.57226447 9.24723816 233.19172668 C9.25238172 233.96164076 9.25752529 234.73155484 9.26282471 235.52479964 C9.22827385 240.77172615 9.22827385 240.77172615 7 243 C4.92236328 243.31884766 4.92236328 243.31884766 2.3203125 243.4140625 C1.34288086 243.45289551 0.36544922 243.49172852 -0.64160156 243.53173828 C-1.70862305 243.56251465 -2.77564453 243.59329102 -3.875 243.625 C-4.98327148 243.66222168 -6.09154297 243.69944336 -7.23339844 243.73779297 C-27.18095954 244.34285598 -47.07945655 244.20730566 -67 243 C-67 242.34 -67 241.68 -67 241 C-42.91 241 -18.82 241 6 241 C5.93700548 213.55631741 5.86172303 186.11275703 5.76428509 158.66917706 C5.71942666 145.92504901 5.67998928 133.18094828 5.65356445 120.43676758 C5.63050352 109.32169318 5.59701582 98.20670598 5.55129844 87.09170085 C5.52747497 81.21298855 5.5086752 75.33436202 5.50238609 69.45560265 C5.49628569 63.90781932 5.47610952 58.36025517 5.44572449 52.81255341 C5.43702295 50.79034009 5.43320504 48.76809803 5.43499184 46.74586678 C5.44468012 30.7031657 3.58354583 15.62550139 0 0 Z " fill="#38CD94" transform="translate(835,455)"/>
<path d="M0 0 C51.15 0 102.3 0 155 0 C154.67 0.66 154.34 1.32 154 2 C104.17 2 54.34 2 3 2 C1.68 5.3 0.36 8.6 -1 12 C-1.53625 13.19625 -2.0725 14.3925 -2.625 15.625 C-3.88022995 18.70601897 -4.66204125 21.68865889 -5.41259766 24.92114258 C-6.03412463 27.12076941 -6.86968169 29.06627304 -7.8359375 31.13671875 C-10.03499668 35.98768704 -11.88418646 40.92829572 -13.6875 45.9375 C-14.29457664 47.61364242 -14.90260269 49.28944138 -15.51171875 50.96484375 C-15.90556763 52.05720337 -15.90556763 52.05720337 -16.30737305 53.17163086 C-17 55 -17 55 -18 57 C-17.34 57.33 -16.68 57.66 -16 58 C-16.45246094 58.37382813 -16.90492188 58.74765625 -17.37109375 59.1328125 C-19.48024179 61.55049299 -20.12057765 63.81661245 -21.0625 66.875 C-22.24286853 70.65786782 -23.50361519 74.33125733 -25 78 C-25.71546139 79.93487916 -26.423766 81.87241927 -27.125 83.8125 C-27.47820312 84.78832031 -27.83140625 85.76414062 -28.1953125 86.76953125 C-28.46085938 87.50558594 -28.72640625 88.24164062 -29 89 C-29.66 88.34 -30.32 87.68 -31 87 C-28.51652667 79.91287229 -26.02993422 72.82684379 -23.54150391 65.74145508 C-22.7013237 63.34813268 -21.86177176 60.9545896 -21.02294922 58.56079102 C-14.16227027 38.98426983 -7.08986587 19.49713115 0 0 Z " fill="#008EAB" transform="translate(277,604)"/>
<path d="M0 0 C1.27617187 0.02320313 2.55234375 0.04640625 3.8671875 0.0703125 C5.78917969 0.09738281 5.78917969 0.09738281 7.75 0.125 C9.23113281 0.15980469 9.23113281 0.15980469 10.7421875 0.1953125 C10.7421875 0.8553125 10.7421875 1.5153125 10.7421875 2.1953125 C6.1221875 2.1953125 1.5021875 2.1953125 -3.2578125 2.1953125 C-3.5878125 3.8453125 -3.9178125 5.4953125 -4.2578125 7.1953125 C-4.75662747 8.76617174 -5.28881288 10.32671872 -5.84912109 11.87670898 C-6.17430222 12.78159058 -6.49948334 13.68647217 -6.83451843 14.61877441 C-7.18818985 15.59149292 -7.54186127 16.56421143 -7.90625 17.56640625 C-8.45905388 19.09956482 -8.45905388 19.09956482 -9.02302551 20.66369629 C-10.22276521 23.98801989 -11.42766152 27.31044721 -12.6328125 30.6328125 C-13.45896707 32.91796814 -14.28489407 35.20320606 -15.1105957 37.48852539 C-21.10840232 54.07633055 -27.15220554 70.64688388 -33.2578125 87.1953125 C-33.99756822 89.20436362 -34.73715766 91.21347597 -35.4765625 93.22265625 C-37.06849739 97.54754622 -38.66233383 101.87172866 -40.2578125 106.1953125 C-40.9178125 105.8653125 -41.5778125 105.5353125 -42.2578125 105.1953125 C-40.12701492 97.82063719 -37.68778197 90.67452955 -34.76953125 83.57421875 C-34.50116455 82.91703857 -34.23279785 82.2598584 -33.95629883 81.58276367 C-33.41886839 80.26938119 -32.87597648 78.95821648 -32.3269043 77.6496582 C-30.76926137 73.84236299 -29.77260527 70.27598692 -29.2578125 66.1953125 C-28.5978125 66.1953125 -27.9378125 66.1953125 -27.2578125 66.1953125 C-27.0103125 64.9165625 -26.7628125 63.6378125 -26.5078125 62.3203125 C-25.54558856 57.96997608 -24.06455701 54.06063999 -22.3359375 49.96484375 C-20.66023586 45.66023338 -19.44204092 41.22788999 -18.1875 36.78515625 C-17.2578125 34.1953125 -17.2578125 34.1953125 -15.2578125 33.1953125 C-14.88875582 31.53619043 -14.56738225 29.86655619 -14.2578125 28.1953125 C-13.35381519 25.08713774 -12.33725939 22.01810167 -11.3203125 18.9453125 C-11.05541016 18.11773437 -10.79050781 17.29015625 -10.51757812 16.4375 C-10.25783203 15.65117187 -9.99808594 14.86484375 -9.73046875 14.0546875 C-9.37867554 12.97912598 -9.37867554 12.97912598 -9.01977539 11.88183594 C-8.2578125 10.1953125 -8.2578125 10.1953125 -6.2578125 9.1953125 C-5.91854303 6.86283489 -5.58541184 4.52945779 -5.2578125 2.1953125 C-3.2578125 0.1953125 -3.2578125 0.1953125 0 0 Z " fill="#0A86BB" transform="translate(318.2578125,279.8046875)"/>
<path d="M0 0 C1.485 0.99 1.485 0.99 3 2 C-0.68716578 11.30213904 -0.68716578 11.30213904 -2.625 15.625 C-3.88022995 18.70601897 -4.66204125 21.68865889 -5.41259766 24.92114258 C-6.03412463 27.12076941 -6.86968169 29.06627304 -7.8359375 31.13671875 C-10.03499668 35.98768704 -11.88418646 40.92829572 -13.6875 45.9375 C-14.29457664 47.61364242 -14.90260269 49.28944138 -15.51171875 50.96484375 C-15.90556763 52.05720337 -15.90556763 52.05720337 -16.30737305 53.17163086 C-17 55 -17 55 -18 57 C-17.34 57.33 -16.68 57.66 -16 58 C-16.45246094 58.37382813 -16.90492188 58.74765625 -17.37109375 59.1328125 C-19.48024179 61.55049299 -20.12057765 63.81661245 -21.0625 66.875 C-22.24286853 70.65786782 -23.50361519 74.33125733 -25 78 C-25.71546139 79.93487916 -26.423766 81.87241927 -27.125 83.8125 C-27.47820312 84.78832031 -27.83140625 85.76414062 -28.1953125 86.76953125 C-28.46085938 87.50558594 -28.72640625 88.24164062 -29 89 C-29.66 88.34 -30.32 87.68 -31 87 C-10.58457163 28.74016429 -10.58457163 28.74016429 0 0 Z " fill="#0D8FB5" transform="translate(277,604)"/>
<path d="M0 0 C0.66 0.33 1.32 0.66 2 1 C-0.17354337 8.83887605 -2.9447577 16.42614598 -5.81262207 24.03173828 C-7.24560816 27.83437304 -8.66636186 31.64156073 -10.0859375 35.44921875 C-10.39200928 36.27014008 -10.69808105 37.0910614 -11.01342773 37.93685913 C-15.16480002 49.09810116 -19.2046904 60.29998721 -23.25 71.5 C-23.62956848 72.55021332 -24.00913696 73.60042664 -24.40020752 74.6824646 C-25.48102555 77.67348185 -26.56107855 80.66477358 -27.640625 83.65625 C-27.96608307 84.55781326 -28.29154114 85.45937653 -28.62686157 86.38825989 C-29.07501724 87.6317646 -29.07501724 87.6317646 -29.53222656 88.90039062 C-29.92308441 89.98447205 -29.92308441 89.98447205 -30.32183838 91.0904541 C-30.90063332 92.72020647 -31.45309083 94.3592725 -32 96 C-32.66 96 -33.32 96 -34 96 C-31.65507326 84.61035581 -27.29554803 74.11771022 -22.9375 63.3828125 C-20.16109326 56.32611204 -17.56961726 49.17187913 -15.5 41.875 C-14.14281764 37.204473 -12.30327931 32.81677935 -10.39453125 28.34765625 C-6.52541494 19.05960954 -3.07847632 9.57748189 0 0 Z " fill="#0B89B8" transform="translate(208,569)"/>
<path d="M0 0 C24.42 0 48.84 0 74 0 C74 0.66 74 1.32 74 2 C49.3017997 3.225135 24.69107942 3.49642906 0 2 C0 1.34 0 0.68 0 0 Z " fill="#08C380" transform="translate(768,696)"/>
<path d="M0 0 C0.66 0 1.32 0 2 0 C-0.06771247 7.22206376 -2.47738784 14.26699538 -5.08984375 21.30859375 C-5.47564102 22.35596207 -5.86143829 23.40333038 -6.25892639 24.48243713 C-7.48230275 27.80183788 -8.70978642 31.1197013 -9.9375 34.4375 C-10.75744302 36.65940133 -11.57710688 38.88140569 -12.39648438 41.10351562 C-13.55644303 44.24918879 -14.71675924 47.39472289 -15.87937927 50.53941345 C-18.2743527 57.01855914 -20.6456226 63.50599273 -23 70 C-23.66 69.34 -24.32 68.68 -25 68 C-24.47599609 66.44539063 -24.47599609 66.44539063 -23.94140625 64.859375 C-23.48169068 63.48961023 -23.0220597 62.11981707 -22.5625 60.75 C-22.33240234 60.06808594 -22.10230469 59.38617188 -21.86523438 58.68359375 C-20.79196286 55.47933387 -19.73984392 52.29953381 -19 49 C-18.34 49 -17.68 49 -17 49 C-16.9175 48.236875 -16.835 47.47375 -16.75 46.6875 C-15.87994732 42.40974098 -14.41832459 38.54963943 -12.83984375 34.48828125 C-11.84010233 31.96395524 -11.84010233 31.96395524 -12 29 C-11.34 29 -10.68 29 -10 29 C-9.91363281 28.40574219 -9.82726562 27.81148438 -9.73828125 27.19921875 C-8.70796328 21.12128797 -6.83932009 16.03499796 -4.171875 10.48828125 C-2.86926164 7.72239887 -1.89848577 4.92007877 -1 2 C-0.67 1.34 -0.34 0.68 0 0 Z " fill="#0A88BB" transform="translate(265,414)"/>
<path d="M0 0 C-0.66 0.66 -1.32 1.32 -2 2 C-2.94359375 1.66226562 -3.8871875 1.32453125 -4.859375 0.9765625 C-6.15607444 0.52553661 -7.45295984 0.07504512 -8.75 -0.375 C-9.67232422 -0.70757812 -9.67232422 -0.70757812 -10.61328125 -1.046875 C-21.23843026 -4.69591607 -31.96392499 -5.36003502 -43.125 -5.3125 C-44.38658936 -5.31121094 -45.64817871 -5.30992187 -46.94799805 -5.30859375 C-56.87817154 -5.20709067 -66.32175238 -4.176634 -76 -2 C-76 -2.99 -76 -3.98 -76 -5 C-74.20578456 -5.21530585 -72.41153481 -5.43032716 -70.6171875 -5.64453125 C-68.80357682 -5.89085748 -66.99585161 -6.18320813 -65.1953125 -6.51171875 C-42.58747008 -10.40866958 -21.3912472 -7.88540093 0 0 Z " fill="#0AB28C" transform="translate(783,392)"/>
<path d="M0 0 C0.66 0.33 1.32 0.66 2 1 C-0.73612492 10.78614023 -4.33171265 20.23510705 -7.875 29.75 C-9.10282574 33.05682381 -10.32896184 36.36427227 -11.5546875 39.671875 C-11.84954041 40.46670288 -12.14439331 41.26153076 -12.44818115 42.08044434 C-15.02308063 49.03340928 -17.5291165 56.00941703 -20 63 C-20.66 63 -21.32 63 -22 63 C-21.40286547 58.32244615 -20.08941523 54.45805545 -18.25 50.125 C-16.01919647 44.75752712 -14.10438699 39.38038414 -12.4375 33.8125 C-10.70686674 28.05752338 -8.66158659 22.55218051 -6.26953125 17.0390625 C-3.93503801 11.45064484 -1.98819057 5.71922053 0 0 Z " fill="#0A88B9" transform="translate(238,487)"/>
<path d="M0 0 C9.13342402 2.53558719 15.78338862 9.60777167 20.6875 17.53515625 C25.55839565 26.6825823 28.1747714 34.68848724 28 45 C27.67 45 27.34 45 27 45 C26.76925781 43.98421875 26.53851562 42.9684375 26.30078125 41.921875 C22.02164447 23.63970886 16.05600792 11.43640515 0 1 C0 0.67 0 0.34 0 0 Z " fill="#0CB585" transform="translate(739,458)"/>
<path d="M0 0 C0.66 0 1.32 0 2 0 C2 0.66 2 1.32 2 2 C2.66 2 3.32 2 4 2 C4 4.97 4 7.94 4 11 C4.66 11 5.32 11 6 11 C5.979375 11.78375 5.95875 12.5675 5.9375 13.375 C5.81315937 15.98114961 5.81315937 15.98114961 7 18 C7.9214387 22.60036802 8.286155 27.19978622 8.5625 31.875 C8.60568359 32.56335938 8.64886719 33.25171875 8.69335938 33.9609375 C8.79832922 35.640455 8.89955429 37.32020586 9 39 C7.515 39.495 7.515 39.495 6 40 C5.88724731 38.87525269 5.88724731 38.87525269 5.7722168 37.7277832 C5.41915731 34.25509756 5.05338502 30.78385686 4.6875 27.3125 C4.56955078 26.13365234 4.45160156 24.95480469 4.33007812 23.74023438 C3.46576223 15.65112411 2.01020417 7.88213799 0 0 Z " fill="#09BC82" transform="translate(835,455)"/>
<path d="M0 0 C0 0.66 0 1.32 0 2 C-0.53367187 2.21914063 -1.06734375 2.43828125 -1.6171875 2.6640625 C-9.95853178 6.21418481 -17.87384689 10.17371511 -24 17 C-25.62836738 18.7041054 -27.28769752 20.38025441 -29 22 C-29.66 22 -30.32 22 -31 22 C-31.33 22.99 -31.66 23.98 -32 25 C-32.66 24.67 -33.32 24.34 -34 24 C-26.10246277 14.69082568 -13.48694248 0 0 0 Z " fill="#09AF8F" transform="translate(700,454)"/>
<path d="M0 0 C1.40898627 3.76250073 0.5539836 5.97056279 -0.87109375 9.640625 C-1.28037109 10.71054687 -1.68964844 11.78046875 -2.11132812 12.8828125 C-2.7677832 14.54957031 -2.7677832 14.54957031 -3.4375 16.25 C-3.87126953 17.37664063 -4.30503906 18.50328125 -4.75195312 19.6640625 C-5.82490012 22.4466503 -6.90787978 25.2248937 -8 28 C-8.66 27.67 -9.32 27.34 -10 27 C-7.30538922 18.75449102 -7.30538922 18.75449102 -5.9375 15.375 C-4.89393257 12.85819659 -4.89393257 12.85819659 -4.0625 9.5625 C-3.03434486 6.11515631 -1.69709079 3.16276011 0 0 Z " fill="#0A8BB9" transform="translate(173,666)"/>
<path d="M0 0 C0.66 0 1.32 0 2 0 C5.54784971 5.37899794 6.70887831 9.58076669 7 16 C7.66 16 8.32 16 9 16 C9.144375 16.7425 9.28875 17.485 9.4375 18.25 C9.90187492 20.52027739 10.41863569 22.75759479 11 25 C10.34 25.33 9.68 25.66 9 26 C7.49744208 21.85508918 5.99838155 17.70892222 4.5 13.5625 C4.07074219 12.37849609 3.64148438 11.19449219 3.19921875 9.97460938 C2.79316406 8.84990234 2.38710938 7.72519531 1.96875 6.56640625 C1.59169922 5.52427979 1.21464844 4.48215332 0.82617188 3.40844727 C0 1 0 1 0 0 Z " fill="#0991B2" transform="translate(410,320)"/>
<path d="M0 0 C6.16634645 2.71319244 11.53201189 7.00636623 16 12 C16.33 12.99 16.66 13.98 17 15 C17.66 15 18.32 15 19 15 C19.66 16.65 20.32 18.3 21 20 C17.12370846 16.76975705 13.4549961 13.49415784 9.9375 9.875 C7.58493961 7.47199484 5.34541984 5.41928828 2.5 3.625 C1.675 3.08875 0.85 2.5525 0 2 C0 1.34 0 0.68 0 0 Z " fill="#16BB8C" transform="translate(797,401)"/>
<path d="M0 0 C0.66 0.33 1.32 0.66 2 1 C-0.43303126 9.87842985 -3.70836494 18.41405225 -7 27 C-7.66 26.34 -8.32 25.68 -9 25 C-7.68712175 20.04658014 -6.02269412 15.51059094 -3.9375 10.8125 C-1.56317136 5.54135718 -1.56317136 5.54135718 0 0 Z " fill="#0C87BB" transform="translate(275,386)"/>
<path d="M0 0 C0.66 0.33 1.32 0.66 2 1 C0.02 6.61 -1.96 12.22 -4 18 C-4.66 17.67 -5.32 17.34 -6 17 C-5.57312017 15.10174715 -5.13300518 13.20646817 -4.6875 11.3125 C-4.44386719 10.25675781 -4.20023438 9.20101562 -3.94921875 8.11328125 C-3.00739175 5.02424372 -1.77627063 2.68182036 0 0 Z " fill="#0888B9" transform="translate(215,551)"/>
<path d="M0 0 C0.66917883 1.33207429 1.33511289 2.66577837 2 4 C2.65548828 5.31484375 2.65548828 5.31484375 3.32421875 6.65625 C3.77410156 7.5946875 4.22398437 8.533125 4.6875 9.5 C5.14511719 10.4384375 5.60273438 11.376875 6.07421875 12.34375 C7.05253196 15.15072462 7.05916608 16.27826413 6 19 C3.73453148 15.60179721 2.61098372 12.16057722 1.375 8.3125 C1.14554687 7.61060547 0.91609375 6.90871094 0.6796875 6.18554688 C0.11570791 4.45835938 -0.44269339 2.72935218 -1 1 C-0.67 0.67 -0.34 0.34 0 0 Z " fill="#0C8FB4" transform="translate(404,300)"/>
<path d="M0 0 C0.66 0 1.32 0 2 0 C2.99 3.96 3.98 7.92 5 12 C4.34 12 3.68 12 3 12 C1.68 8.37 0.36 4.74 -1 1 C-0.67 0.67 -0.34 0.34 0 0 Z " fill="#0695AD" transform="translate(434,382)"/>
<path d="M0 0 C1 4 1 4 0.00390625 6.140625 C-0.47175781 6.83671875 -0.94742188 7.5328125 -1.4375 8.25 C-1.91058594 8.95640625 -2.38367188 9.6628125 -2.87109375 10.390625 C-3.24363281 10.92171875 -3.61617187 11.4528125 -4 12 C-4.66 11.67 -5.32 11.34 -6 11 C-4.02 7.37 -2.04 3.74 0 0 Z " fill="#0EB091" transform="translate(665,479)"/>
<path d="M0 0 C2 3 2 3 1.7578125 5.04296875 C1.171875 7.02864583 0.5859375 9.01432292 0 11 C-2 8 -2 8 -1.7578125 5.95703125 C-1.171875 3.97135417 -0.5859375 1.98567708 0 0 Z " fill="#1699BB" transform="translate(271,620)"/>
<path d="M0 0 C0.66 0.33 1.32 0.66 2 1 C2.625 3.5625 2.625 3.5625 3 6 C1.35 6.33 -0.3 6.66 -2 7 C-1.34 4.69 -0.68 2.38 0 0 Z " fill="#128FB7" transform="translate(355,380)"/>
<path d="M0 0 C2 1 2 1 2.6328125 2.84765625 C2.79523438 3.57855469 2.95765625 4.30945313 3.125 5.0625 C3.29257812 5.79597656 3.46015625 6.52945312 3.6328125 7.28515625 C3.75398438 7.85105469 3.87515625 8.41695313 4 9 C3.01 8.67 2.02 8.34 1 8 C0.67 5.36 0.34 2.72 0 0 Z " fill="#0C91B3" transform="translate(362,401)"/>
</svg>
